# xmcd
#
# Track frame offsets: 
#        150
#        26761
#        43583
#        66655
#        93671
#        113074
#        136325
#        164508
#        183249
#        200467
#        231490
#        249838
#
# Disc length: 3542 seconds
#
# Revision: 3
# Processed by: cddbd v1.5.2PL0 Copyright (c) Steve Scherf et al.
# Submitted via: ExactAudioCopy v0.99pb4
#
DISCID=ab0dd40c
DTITLE=Tinsley Ellis - Moment Of Truth
DYEAR=2007
DGENRE=Blues
TTITLE0=Say Too Much
TTITLE1=Somebody
TTITLE2=Get To The Bottom
TTITLE3=You're Gonna Thank Me
TTITLE4=Tell The Truth
TTITLE5=Too Much Of Everything
TTITLE6=Bringin' Home The Bacon
TTITLE7=Freeway Soul
TTITLE8=I Take What I Want
TTITLE9=Sleep On It
TTITLE10=Stare at the sun
TTITLE11=Shadow Of Doubt
EXTD=
EXTT0=
EXTT1=
EXTT2=
EXTT3=
EXTT4=
EXTT5=
EXTT6=
EXTT7=
EXTT8=
EXTT9=
EXTT10=
EXTT11=
PLAYORDER=
